<svg width="19" height="19" viewBox="0 0 19 19" fill="none" xmlns="http://www.w3.org/2000/svg">
<path d="M17.2628 7.94952H16.6252V7.91666H9.50016V11.0833H13.9743C13.3215 12.9267 11.5676 14.25 9.50016 14.25C6.87698 14.25 4.75016 12.1232 4.75016 9.49999C4.75016 6.87681 6.87698 4.74999 9.50016 4.74999C10.711 4.74999 11.8126 5.20679 12.6514 5.95293L14.8906 3.7137C13.4767 2.39597 11.5854 1.58333 9.50016 1.58333C5.12818 1.58333 1.5835 5.12802 1.5835 9.49999C1.5835 13.872 5.12818 17.4167 9.50016 17.4167C13.8721 17.4167 17.4168 13.872 17.4168 9.49999C17.4168 8.96918 17.3622 8.45104 17.2628 7.94952Z" fill="#FFC107"/>
<path d="M2.49609 5.81518L5.09711 7.7227C5.80091 5.98025 7.50536 4.74999 9.49997 4.74999C10.7108 4.74999 11.8124 5.20679 12.6512 5.95293L14.8904 3.7137C13.4765 2.39597 11.5852 1.58333 9.49997 1.58333C6.45918 1.58333 3.82214 3.30006 2.49609 5.81518Z" fill="#FF3D00"/>
<path d="M9.49996 17.4167C11.5448 17.4167 13.4029 16.6341 14.8077 15.3615L12.3575 13.2881C11.5359 13.9129 10.5321 14.2508 9.49996 14.25C7.44084 14.25 5.69244 12.937 5.03377 11.1047L2.45215 13.0938C3.76236 15.6576 6.42315 17.4167 9.49996 17.4167Z" fill="#4CAF50"/>
<path d="M17.2627 7.94952H16.625V7.91666H9.5V11.0833H13.9741C13.6619 11.9607 13.0995 12.7273 12.3563 13.2885L12.3575 13.2877L14.8077 15.3611C14.6344 15.5186 17.4167 13.4583 17.4167 9.5C17.4167 8.96918 17.362 8.45104 17.2627 7.94952Z" fill="#1976D2"/>
</svg>
