<svg width="24" height="24" viewBox="0 0 24 24" fill="none" xmlns="http://www.w3.org/2000/svg">
<g clip-path="url(#clip0_3_483)">
<path fill-rule="evenodd" clip-rule="evenodd" d="M5.83983 9.85601C7.63058 13.7544 10.8123 16.8438 14.7618 18.519L14.7738 18.524L15.5378 18.864C16.0097 19.0744 16.5397 19.1161 17.0386 18.9818C17.5376 18.8476 17.9752 18.5458 18.2778 18.127L19.5518 16.364C19.5893 16.3121 19.6054 16.2478 19.5968 16.1843C19.5883 16.1209 19.5557 16.0631 19.5058 16.023L17.2818 14.228C17.2556 14.2068 17.2253 14.1912 17.1929 14.182C17.1604 14.1729 17.1265 14.1703 17.093 14.1746C17.0596 14.1789 17.0273 14.19 16.9983 14.207C16.9692 14.2241 16.9439 14.2469 16.9238 14.274L16.0578 15.442C15.9558 15.5798 15.8096 15.6785 15.6437 15.7216C15.4778 15.7647 15.302 15.7497 15.1458 15.679C12.1869 14.3386 9.81628 11.968 8.47583 9.00901C8.40514 8.8528 8.3901 8.67709 8.43323 8.51114C8.47635 8.34519 8.57503 8.19903 8.71283 8.09701L9.87983 7.23001C9.90695 7.20996 9.92973 7.18464 9.94681 7.15557C9.96389 7.12649 9.9749 7.09426 9.9792 7.06082C9.9835 7.02737 9.98099 6.99341 9.97181 6.96096C9.96264 6.92851 9.947 6.89825 9.92583 6.87201L8.13183 4.64801C8.09169 4.59814 8.03395 4.56557 7.9705 4.55701C7.90706 4.54845 7.84275 4.56456 7.79083 4.60201L6.01783 5.88201C5.59623 6.18611 5.29294 6.62682 5.15949 7.12924C5.02605 7.63166 5.07069 8.16478 5.28583 8.63801L5.83983 9.85601ZM14.1698 19.897C9.87894 18.075 6.42243 14.7173 4.47683 10.481L4.47483 10.479L3.92083 9.25901C3.56225 8.47044 3.48774 7.58205 3.70996 6.74477C3.93217 5.9075 4.43741 5.17298 5.13983 4.66601L6.91283 3.38601C7.27596 3.12393 7.72574 3.01103 8.1696 3.07056C8.61345 3.13009 9.01759 3.35751 9.29883 3.70601L11.0938 5.93101C11.242 6.11458 11.3515 6.3262 11.4157 6.55316C11.48 6.78013 11.4977 7.01774 11.4678 7.25172C11.4379 7.4857 11.361 7.71123 11.2418 7.91475C11.1225 8.11826 10.9634 8.29557 10.7738 8.43601L10.1038 8.93201C11.2366 11.1283 13.0255 12.9172 15.2218 14.05L15.7188 13.38C15.8593 13.1906 16.0365 13.0316 16.24 12.9124C16.4434 12.7933 16.6688 12.7164 16.9027 12.6865C17.1365 12.6566 17.374 12.6743 17.6009 12.7385C17.8277 12.8027 18.0393 12.912 18.2228 13.06L20.4478 14.855C20.7966 15.1363 21.0242 15.5406 21.0837 15.9847C21.1433 16.4288 21.0302 16.8788 20.7678 17.242L19.4938 19.006C18.9895 19.7039 18.2604 20.2071 17.4289 20.4309C16.5975 20.6547 15.7143 20.5855 14.9278 20.235L14.1698 19.897Z" fill="#C4C4C4"/>
</g>
<defs>
<clipPath id="clip0_3_483">
<rect width="24" height="24" fill="white"/>
</clipPath>
</defs>
</svg>
