<svg width="30" height="30" viewBox="0 0 30 30" fill="none" xmlns="http://www.w3.org/2000/svg">
<path d="M9.4875 6.76252C8.5125 5.78752 8.5125 4.20002 9.4875 3.22502C10.4625 2.25002 12.05 2.25002 13.025 3.22502C14 4.20002 14 5.78752 13.025 6.76252C12.0375 7.75002 10.4625 7.75002 9.4875 6.76252ZM7.5 20V8.75003H5V20C5 23.45 7.8 26.25 11.25 26.25H18.75V23.75H11.25C9.175 23.75 7.5 22.075 7.5 20ZM25 25.0875L18.6625 18.75H14.375V14.15C16.125 15.5875 18.875 16.85 21.25 16.85V14.15C19.175 14.175 16.7375 13.0625 15.4125 11.6L13.6625 9.66253C13.425 9.40003 13.125 9.18753 12.8 9.03753C12.4375 8.86252 12.025 8.75003 11.6 8.75003H11.5625C10.0125 8.75003 8.75 10.0125 8.75 11.5625V18.75C8.75 20.825 10.425 22.5 12.5 22.5H18.8375L23.2125 26.875L25 25.0875Z" fill="white"/>
</svg>
