<svg width="30" height="30" viewBox="0 0 30 30" fill="none" xmlns="http://www.w3.org/2000/svg">
<path d="M22.0888 17.8837C20.23 16.0237 17.7125 15 15 15C12.2875 15 9.77 16.0237 7.91125 17.8837L9.67875 19.6512C11.0663 18.2637 12.955 17.4987 15 17.4987C17.045 17.5 18.9338 18.2637 20.3213 19.6512L22.0888 17.8837Z" fill="white"/>
<path d="M25.5462 14.1149C19.8312 8.3987 10.17 8.3987 4.45496 14.1149L6.22246 15.8824C10.9812 11.1237 19.02 11.1237 23.7787 15.8824L25.5462 14.1149Z" fill="white"/>
<path d="M15 25C16.3807 25 17.5 23.8807 17.5 22.5C17.5 21.1193 16.3807 20 15 20C13.6193 20 12.5 21.1193 12.5 22.5C12.5 23.8807 13.6193 25 15 25Z" fill="white"/>
</svg>
