<svg width="16" height="10" viewBox="0 0 16 10" fill="none" xmlns="http://www.w3.org/2000/svg">
<path d="M16 0.504045C16 0.225669 15.7743 -1.44844e-07 15.496 -2.72307e-07L10.9595 1.31328e-07C10.6812 -3.86239e-08 10.4555 0.225669 10.4555 0.504046C10.4555 0.782422 10.6812 1.00809 10.9595 1.00809L14.9919 1.00809L14.9919 5.04046C14.9919 5.31883 15.2176 5.5445 15.496 5.5445C15.7743 5.5445 16 5.31883 16 5.04046L16 0.504045ZM8.79573 7.9171L15.8524 0.86046L15.1395 0.147632L8.0829 7.20427L8.79573 7.9171Z" fill="black"/>
<path d="M8.43932 7.05664L4.911 4.03236L0.374589 9.07282" stroke="black"/>
</svg>
