<svg width="85" height="72" viewBox="0 0 85 72" fill="none" xmlns="http://www.w3.org/2000/svg">
<path d="M77.1296 11.0185H63.75L60.5625 2.08565C60.3423 1.4744 59.9387 0.946036 59.407 0.572742C58.8752 0.199449 58.2411 -0.000573178 57.5914 1.23371e-06H27.4086C26.0804 1.23371e-06 24.89 0.836228 24.4473 2.08565L21.25 11.0185H7.87037C3.52199 11.0185 0 14.5405 0 18.8889V63.75C0 68.0984 3.52199 71.6204 7.87037 71.6204H77.1296C81.478 71.6204 85 68.0984 85 63.75V18.8889C85 14.5405 81.478 11.0185 77.1296 11.0185ZM77.9167 63.75C77.9167 64.1829 77.5625 64.537 77.1296 64.537H7.87037C7.4375 64.537 7.08333 64.1829 7.08333 63.75V18.8889C7.08333 18.456 7.4375 18.1018 7.87037 18.1018H26.2378L27.9201 13.3993L30.173 7.08333H54.8171L57.07 13.3993L58.7523 18.1018H77.1296C77.5625 18.1018 77.9167 18.456 77.9167 18.8889V63.75ZM42.5 24.3981C33.8032 24.3981 26.7593 31.4421 26.7593 40.1389C26.7593 48.8356 33.8032 55.8796 42.5 55.8796C51.1968 55.8796 58.2407 48.8356 58.2407 40.1389C58.2407 31.4421 51.1968 24.3981 42.5 24.3981ZM42.5 49.5833C37.2859 49.5833 33.0556 45.353 33.0556 40.1389C33.0556 34.9248 37.2859 30.6944 42.5 30.6944C47.7141 30.6944 51.9444 34.9248 51.9444 40.1389C51.9444 45.353 47.7141 49.5833 42.5 49.5833Z" fill="#C4C4C4"/>
</svg>
