<svg width="25" height="20" viewBox="0 0 25 20" fill="none" xmlns="http://www.w3.org/2000/svg">
<path d="M8.43737 11.8752C9.35191 11.8752 10.2397 12.1837 10.9572 12.7508C11.6747 13.3179 12.1799 14.1105 12.3912 15.0003H24.0627C24.3002 15.0003 24.5288 15.0906 24.7024 15.2527C24.876 15.4149 24.9815 15.6369 24.9977 15.8739C25.0139 16.1109 24.9395 16.3452 24.7896 16.5294C24.6397 16.7137 24.4255 16.8342 24.1902 16.8666L24.0627 16.8753H12.3912C12.1799 17.765 11.6746 18.5575 10.9571 19.1245C10.2396 19.6916 9.35186 20 8.43737 20C7.52287 20 6.63511 19.6916 5.91762 19.1245C5.20014 18.5575 4.69488 17.765 4.48355 16.8753H0.937231C0.699697 16.8752 0.471046 16.785 0.29748 16.6228C0.123913 16.4607 0.0183721 16.2387 0.00218177 16.0017C-0.0140085 15.7647 0.0603593 15.5304 0.210259 15.3462C0.360158 15.1619 0.574412 15.0414 0.809729 15.009L0.937231 15.0003H4.48355C4.69481 14.1105 5.20004 13.3179 5.91753 12.7508C6.63502 12.1837 7.52282 11.8752 8.43737 11.8752ZM16.5625 0C17.4771 1.9166e-05 18.3649 0.308522 19.0824 0.875618C19.7998 1.44271 20.3051 2.23525 20.5163 3.12506H24.0627C24.3002 3.12513 24.5288 3.21536 24.7024 3.37753C24.876 3.53969 24.9815 3.76169 24.9977 3.99867C25.0139 4.23565 24.9395 4.46995 24.7896 4.65421C24.6397 4.83847 24.4255 4.95896 24.1902 4.99134L24.0627 5.00009H20.5163C20.305 5.88983 19.7997 6.68229 19.0823 7.24931C18.3648 7.81634 17.477 8.12479 16.5625 8.12479C15.648 8.12479 14.7603 7.81634 14.0428 7.24931C13.3253 6.68229 12.82 5.88983 12.6087 5.00009H0.937231C0.699697 5.00002 0.471046 4.90978 0.29748 4.74762C0.123913 4.58546 0.0183721 4.36346 0.00218177 4.12648C-0.0140085 3.88949 0.0603593 3.6552 0.210259 3.47094C0.360158 3.28668 0.574412 3.16618 0.809729 3.13381L0.937231 3.12506H12.6087C12.82 2.23525 13.3252 1.44271 14.0427 0.875618C14.7602 0.308522 15.648 1.9166e-05 16.5625 0Z" fill="white"/>
</svg>
