<svg width="30" height="30" viewBox="0 0 30 30" fill="none" xmlns="http://www.w3.org/2000/svg">
<path d="M18.9816 25.2H7.3C5.3694 25.2 3.8 23.6306 3.8 21.7C3.8 19.7694 5.3694 18.2 7.3 18.2H17.1C19.802 18.2 22 16.002 22 13.3C22 10.598 19.802 8.4 17.1 8.4H10.2946C9.78045 9.40784 9.14376 10.3483 8.399 11.2H17.1C18.2578 11.2 19.2 12.1422 19.2 13.3C19.2 14.4578 18.2578 15.4 17.1 15.4H7.3C3.8266 15.4 1 18.2266 1 21.7C1 25.1734 3.8266 28 7.3 28H20.7302C20.0432 27.1359 19.4566 26.1965 18.9816 25.2ZM5.2 0C2.8844 0 1 1.8844 1 4.2C1 8.6632 5.2 11.2 5.2 11.2C5.2 11.2 9.4 8.6618 9.4 4.2C9.4 1.8844 7.5156 0 5.2 0ZM5.2 6.3C4.92413 6.29991 4.65098 6.24548 4.39615 6.13983C4.14132 6.03417 3.90979 5.87936 3.71479 5.68422C3.51978 5.48909 3.36512 5.25746 3.25964 5.00256C3.15415 4.74765 3.09991 4.47447 3.1 4.1986C3.10009 3.92273 3.15452 3.64958 3.26017 3.39475C3.36583 3.13992 3.52064 2.90839 3.71578 2.71339C3.91091 2.51838 4.14254 2.36372 4.39744 2.25824C4.65235 2.15275 4.92553 2.09851 5.2014 2.0986C5.75854 2.09879 6.29279 2.32029 6.68661 2.71438C7.08044 3.10846 7.30159 3.64286 7.3014 4.2C7.30121 4.75714 7.07971 5.29139 6.68562 5.68521C6.29153 6.07904 5.75714 6.30019 5.2 6.3Z" fill="#F9B401"/>
<path d="M25.5 17C23.019 17 21 19.019 21 21.5C21 26.282 25.5 29 25.5 29C25.5 29 30 26.2805 30 21.5C30 19.019 27.981 17 25.5 17ZM25.5 23.75C25.2044 23.7499 24.9118 23.6916 24.6387 23.5784C24.3657 23.4652 24.1176 23.2993 23.9087 23.0902C23.6998 22.8812 23.5341 22.633 23.421 22.3599C23.308 22.0868 23.2499 21.7941 23.25 21.4985C23.2501 21.2029 23.3084 20.9103 23.4216 20.6372C23.5348 20.3642 23.7007 20.1161 23.9098 19.9072C24.1188 19.6983 24.367 19.5326 24.6401 19.4195C24.9132 19.3065 25.2059 19.2484 25.5015 19.2485C26.0984 19.2487 26.6708 19.486 27.0928 19.9083C27.5148 20.3305 27.7517 20.9031 27.7515 21.5C27.7513 22.0969 27.514 22.6693 27.0917 23.0913C26.6695 23.5133 26.0969 23.7502 25.5 23.75Z" fill="#F9B401"/>
</svg>
