<svg width="30" height="30" viewBox="0 0 30 30" fill="none" xmlns="http://www.w3.org/2000/svg">
<path d="M26.5625 5.44922C26.875 5.56641 27.1354 5.625 27.5 5.625C28.8542 5.625 30 4.39453 30 2.8125C30 1.28906 28.8542 0 27.5 0C26.0938 0 25 1.28906 25 2.8125C25 2.98828 25 3.10547 25 3.28125L20.0521 7.73438C19.7396 7.61719 19.4792 7.5 19.1146 7.5C18.8021 7.5 18.5417 7.61719 18.2292 7.73438L13.2812 3.28125C13.2812 3.10547 13.3333 2.98828 13.3333 2.8125C13.3333 1.28906 12.1875 0 10.8333 0C9.42708 0 8.33333 1.28906 8.33333 2.8125C8.33333 3.10547 8.33333 3.33984 8.38542 3.57422L3.125 9.49219C2.91667 9.43359 2.70833 9.375 2.5 9.375C1.09375 9.375 0 10.6641 0 12.1875C0 13.7695 1.09375 15 2.5 15C3.85417 15 5 13.7695 5 12.1875C5 11.9531 4.94792 11.7188 4.89583 11.4844L10.1562 5.56641C10.3646 5.625 10.5729 5.625 10.8333 5.625C11.1458 5.625 11.4062 5.56641 11.7188 5.44922L16.6667 9.90234C16.6667 10.0781 16.6667 10.1953 16.6667 10.3125C16.6667 11.8945 17.7604 13.125 19.1667 13.125C20.5208 13.125 21.6667 11.8945 21.6667 10.3125C21.6667 10.1953 21.6146 10.0781 21.6146 9.90234L26.5625 5.44922ZM20.8333 18.75H17.5C17.0312 18.75 16.6667 19.2188 16.6667 19.6875V29.0625C16.6667 29.5898 17.0312 30 17.5 30H20.8333C21.25 30 21.6667 29.5898 21.6667 29.0625V19.6875C21.6667 19.2188 21.25 18.75 20.8333 18.75ZM29.1667 11.25H25.8333C25.3646 11.25 25 11.7188 25 12.1875V29.0625C25 29.5898 25.3646 30 25.8333 30H29.1667C29.5833 30 30 29.5898 30 29.0625V12.1875C30 11.7188 29.5833 11.25 29.1667 11.25ZM12.5 11.25H9.16667C8.69792 11.25 8.33333 11.7188 8.33333 12.1875V29.0625C8.33333 29.5898 8.69792 30 9.16667 30H12.5C12.9167 30 13.3333 29.5898 13.3333 29.0625V12.1875C13.3333 11.7188 12.9167 11.25 12.5 11.25ZM4.16667 20.625H0.833333C0.364583 20.625 0 21.0938 0 21.5625V29.0625C0 29.5898 0.364583 30 0.833333 30H4.16667C4.58333 30 5 29.5898 5 29.0625V21.5625C5 21.0938 4.58333 20.625 4.16667 20.625Z" fill="black" fill-opacity="0.4"/>
</svg>
