<svg width="30" height="30" viewBox="0 0 30 30" fill="none" xmlns="http://www.w3.org/2000/svg">
<path d="M13.75 4.4475V6.25C13.75 6.58152 13.8817 6.89946 14.1161 7.13388C14.3505 7.3683 14.6685 7.5 15 7.5C15.3315 7.5 15.6495 7.3683 15.8839 7.13388C16.1183 6.89946 16.25 6.58152 16.25 6.25V4.4475C18.6197 4.72887 20.8258 5.79941 22.5132 7.48681C24.2006 9.1742 25.2711 11.3803 25.5525 13.75H23.75C23.4185 13.75 23.1005 13.8817 22.8661 14.1161C22.6317 14.3505 22.5 14.6685 22.5 15C22.5 15.3315 22.6317 15.6495 22.8661 15.8839C23.1005 16.1183 23.4185 16.25 23.75 16.25H25.55C25.27 18.5212 24.245 20.56 22.75 22.175C22.5809 22.3573 22.4912 22.5994 22.5006 22.8479C22.51 23.0963 22.6177 23.3309 22.8 23.5C22.9823 23.6691 23.2244 23.7588 23.4729 23.7494C23.7213 23.74 23.9559 23.6323 24.125 23.45C26.1787 21.2312 27.5 18.2912 27.5 15C27.5 8.09625 21.9037 2.5 15 2.5C8.09625 2.5 2.5 8.09625 2.5 15C2.5 18.2912 3.82125 21.2312 5.875 23.45C5.95872 23.5403 6.0594 23.6132 6.17129 23.6646C6.28319 23.7159 6.40411 23.7448 6.52714 23.7494C6.65018 23.7541 6.77293 23.7344 6.88838 23.6916C7.00383 23.6488 7.10972 23.5837 7.2 23.5C7.29028 23.4163 7.36319 23.3156 7.41457 23.2037C7.46594 23.0918 7.49477 22.9709 7.49942 22.8479C7.50406 22.7248 7.48442 22.6021 7.44163 22.4866C7.39883 22.3712 7.33372 22.2653 7.25 22.175C5.755 20.56 4.73 18.5225 4.45 16.25H6.25C6.58152 16.25 6.89946 16.1183 7.13388 15.8839C7.3683 15.6495 7.5 15.3315 7.5 15C7.5 14.6685 7.3683 14.3505 7.13388 14.1161C6.89946 13.8817 6.58152 13.75 6.25 13.75H4.4475C4.67551 11.8039 5.43977 9.9595 6.655 8.4225L7.86625 9.635C7.98239 9.75106 8.12025 9.8431 8.27196 9.90588C8.42367 9.96865 8.58626 10.0009 8.75044 10.0009C8.91463 10.0008 9.07719 9.96842 9.22886 9.90554C9.38053 9.84265 9.51832 9.75051 9.63438 9.63437C9.75043 9.51824 9.84247 9.38038 9.90525 9.22867C9.96803 9.07696 10.0003 8.91437 10.0003 8.75018C10.0002 8.586 9.9678 8.42343 9.90491 8.27177C9.84203 8.1201 9.74989 7.98231 9.63375 7.86625L8.4225 6.655C9.9595 5.43977 11.8039 4.67551 13.75 4.4475ZM20.9488 8.2925C20.8035 8.18063 20.6244 8.12153 20.4411 8.12494C20.2577 8.12835 20.081 8.19405 19.94 8.31125L19.6675 8.54C18.6847 9.36535 17.7051 10.1945 16.7288 11.0275C15.9088 11.7275 15.07 12.4525 14.4 13.0437C14.1099 13.2987 13.8228 13.5571 13.5388 13.8187C13.3534 13.9848 13.178 14.1618 13.0138 14.3487C12.8199 14.5874 12.6759 14.8626 12.5904 15.1579C12.5049 15.4533 12.4796 15.7628 12.516 16.0682C12.5523 16.3735 12.6497 16.6684 12.8022 16.9354C12.9547 17.2024 13.1592 17.4361 13.4037 17.6225C13.9017 18.0065 14.5297 18.1813 15.1544 18.1099C15.7792 18.0384 16.3515 17.7264 16.75 17.24C16.86 17.105 17.0063 16.87 17.1562 16.6187C17.3163 16.35 17.5125 16.0062 17.73 15.6212C18.1637 14.8462 18.69 13.8812 19.1987 12.94C19.803 11.8187 20.4025 10.695 20.9975 9.56875L21.1613 9.2575C21.2454 9.09744 21.2702 8.91277 21.2313 8.73617C21.1924 8.55957 21.0923 8.40241 20.9488 8.2925Z" fill="white"/>
</svg>
